<?xml version="1.0"?>
<svg xmlns="http://www.w3.org/2000/svg" 
	xmlns:xlink="http://www.w3.org/1999/xlink" 
	version="1.1" 
	id="Capa_1" 
	x="0px" 
	y="0px" 
	viewBox="0 0 355.52 355.52" 
	style="enable-background:new 0 0 355.52 355.52;" 
	xml:space="preserve" 
	width="512px" 
	height="512px"
>
	<g>
		<script xmlns=""/>
		<g>

			<path d="M285.71,66.299c-9.855-19.437-24.598-35.835-42.635-47.425C223.857,6.526,201.271,0,177.76,0   
				s-46.098,6.526-65.316,18.874c-18.037,11.59-32.78,27.988-42.635,47.425S55.438,107.32,56.749,128.72   
				c1.397,22.801,9.48,44.877,23.375,63.845l26.603,36.312c24.962,34.071,38.156,74.406,38.156,116.644c0,5.522,4.477,10,10,10h45.756   
				c5.523,0,10-4.479,10-10.001c0-42.237,13.194-82.571,38.156-116.643l26.603-36.312c13.895-18.968,21.978-41.044,23.375-63.845   
				C300.082,107.32,295.565,85.735,285.71,66.299z M212.069,26.023c20.376,22.515,26.343,66.217,17.253,126.382   
				c-5.702,37.741-15.807,71.196-19.644,83.135H187.76V21.305c0-0.281-0.019-0.558-0.042-0.834c8.357,0.779,16.417,2.533,24.061,5.198   
				C211.876,25.786,211.965,25.909,212.069,26.023z M145.841,235.54c-3.837-11.939-13.941-45.393-19.643-83.133   
				c-9.09-60.164-3.124-103.866,17.251-126.382c0.104-0.115,0.194-0.238,0.292-0.357c7.644-2.664,15.704-4.419,24.061-5.198   
				c-0.023,0.276-0.042,0.552-0.042,0.834V235.54H145.841z M96.257,180.744c-22.963-31.344-26.182-70.745-8.61-105.4   
				c5.827-11.491,13.434-21.436,22.406-29.611c-16.7,50.397-3.513,121.314,7.532,164.122L96.257,180.744z M164.657,335.519   
				c-0.311-6.893-0.947-13.731-1.894-20.499h29.994c-0.948,6.769-1.584,13.607-1.895,20.5L164.657,335.519z M196.515,295.064   
				c-0.29-0.025-0.581-0.044-0.878-0.044h-35.756c-0.296,0-0.588,0.019-0.878,0.044c-3.226-13.584-7.76-26.805-13.563-39.524h64.637   
				C204.276,268.259,199.741,281.479,196.515,295.064z M259.262,180.744l-21.327,29.11c11.045-42.809,24.231-113.726,7.531-164.123   
				c8.972,8.175,16.579,18.12,22.406,29.612C285.444,109.998,282.225,149.4,259.262,180.744z" 
				data-original="#211915" 
				class="active-path" 
				data-old_color="#faf8f8" 
				fill="#faf8f8"
			/>
		</g>
	</g>
</svg>
